HIERARCHY
ROOT Hip
{
	OFFSET 0 1.131 0.0052
	CHANNELS 6 Xposition Yposition Zposition Xrotation Yrotation Zrotation
	JOINT Abdomen
	{
		OFFSET 0 -0.047353 -0.05
		CHANNELS 3 Xrotation Zrotation Yrotation
		JOINT Chest
		{
			OFFSET 0 0.132153 0.007439
			CHANNELS 3 Xrotation Zrotation Yrotation
			JOINT Neck
			{
				OFFSET 0 0.3078 0.006161
				CHANNELS 3 Xrotation Zrotation Yrotation
				JOINT Head_comp
				{
					OFFSET 0 0.0884 0.013
					CHANNELS 3 Xrotation Yrotation Zrotation
					End Site
					{
						OFFSET -0 0.156 0.0624
					}
				}
			}
			JOINT Left_Collar
			{
				OFFSET 0.02282 0.250342 0.017193
				CHANNELS 2 Yrotation Zrotation
				JOINT Left_Shoulder
				{
					OFFSET 0.15421 0 0
					CHANNELS 3 Xrotation Yrotation Zrotation
					JOINT Left_Forearm
					{
						OFFSET 0.265212 0 0
						CHANNELS 2 Yrotation Xrotation
						JOINT Left_Hand
						{
							OFFSET 0.27571 0 0
							CHANNELS 2 Zrotation Yrotation
							JOINT L1ProxPhalanx
							{
								OFFSET 0.014142 0.001733 0.014142
								CHANNELS 3 Yrotation Zrotation Xrotation
								JOINT L1MidPhalanx
								{
									OFFSET 0.04 0 0
									CHANNELS 1 Zrotation
									JOINT L1DistPhalanx
									{
										OFFSET 0.035 0 0
										CHANNELS 1 Zrotation
										End Site
										{
											OFFSET 0.029 -0 -0
										}
									}
								}
							}
							JOINT L2ProxPhalanx
							{
								OFFSET 0.0821037 0.001578 0.0219996
								CHANNELS 2 Yrotation Zrotation
								JOINT L2MidPhalanx
								{
									OFFSET 0.04 0 0
									CHANNELS 1 Zrotation
									JOINT L2DistPhalanx
									{
										OFFSET 0.028 0 0
										CHANNELS 1 Zrotation
										End Site
										{
											OFFSET 0.02 -0 -0
										}
									}
								}
							}
							JOINT L3ProxPhalanx
							{
								OFFSET 0.083 0 0
								CHANNELS 2 Yrotation Zrotation
								JOINT L3MidPhalanx
								{
									OFFSET 0.053 0 0
									CHANNELS 1 Zrotation
									JOINT L3DistPhalanx
									{
										OFFSET 0.03 0 0
										CHANNELS 1 Zrotation
										End Site
										{
											OFFSET 0.023 -0 -0
										}
									}
								}
							}
							JOINT L4ProxPhalanx
							{
								OFFSET 0.077274 -0.000761 -0.0207055
								CHANNELS 2 Yrotation Zrotation
								JOINT L4MidPhalanx
								{
									OFFSET 0.05 0 0
									CHANNELS 1 Zrotation
									JOINT L4DistPhalanx
									{
										OFFSET 0.03 0 0
										CHANNELS 1 Zrotation
										End Site
										{
											OFFSET 0.023 -0 -0
										}
									}
								}
							}
							JOINT L5ProxPhalanx
							{
								OFFSET 0.0675499 -0.001644 -0.039
								CHANNELS 2 Yrotation Zrotation
								JOINT L5MidPhalanx
								{
									OFFSET 0.04 0 0
									CHANNELS 1 Zrotation
									JOINT L5DistPhalanx
									{
										OFFSET 0.021 0 0
										CHANNELS 1 Zrotation
										End Site
										{
											OFFSET 0.022 -0 -0
										}
									}
								}
							}
						}
					}
				}
			}
			JOINT Right_Collar
			{
				OFFSET -0.02282 0.250342 0.017193
				CHANNELS 2 Yrotation Zrotation
				JOINT Right_Shoulder
				{
					OFFSET -0.15421 0 0
					CHANNELS 3 Xrotation Yrotation Zrotation
					JOINT Right_Forearm
					{
						OFFSET -0.265212 0 0
						CHANNELS 2 Yrotation Xrotation
						JOINT Right_Hand
						{
							OFFSET -0.27571 3e-006 0
							CHANNELS 2 Zrotation Yrotation
							JOINT R1ProxPhalanx
							{
								OFFSET -0.014142 0.001733 0.014142
								CHANNELS 3 Yrotation Zrotation Xrotation
								JOINT R1MidPhalanx
								{
									OFFSET -0.04 0 0
									CHANNELS 1 Zrotation
									JOINT R1DistPhalanx
									{
										OFFSET -0.035 0 0
										CHANNELS 1 Zrotation
										End Site
										{
											OFFSET -0.029 -0 -0
										}
									}
								}
							}
							JOINT R2ProxPhalanx
							{
								OFFSET -0.0821037 0.001578 0.0219996
								CHANNELS 2 Yrotation Zrotation
								JOINT R2MidPhalanx
								{
									OFFSET -0.04 0 0
									CHANNELS 1 Zrotation
									JOINT R2DistPhalanx
									{
										OFFSET -0.028 0 0
										CHANNELS 1 Zrotation
										End Site
										{
											OFFSET -0.02 -0 -0
										}
									}
								}
							}
							JOINT R3ProxPhalanx
							{
								OFFSET -0.083 0 0
								CHANNELS 2 Yrotation Zrotation
								JOINT R3MidPhalanx
								{
									OFFSET -0.053 0 0
									CHANNELS 1 Zrotation
									JOINT R3DistPhalanx
									{
										OFFSET -0.03 0 0
										CHANNELS 1 Zrotation
										End Site
										{
											OFFSET -0.023 -0 -0
										}
									}
								}
							}
							JOINT R4ProxPhalanx
							{
								OFFSET -0.077274 -0.000761 -0.0207055
								CHANNELS 2 Yrotation Zrotation
								JOINT R4MidPhalanx
								{
									OFFSET -0.05 0 0
									CHANNELS 1 Zrotation
									JOINT R4DistPhalanx
									{
										OFFSET -0.03 0 0
										CHANNELS 1 Zrotation
										End Site
										{
											OFFSET -0.023 -0 -0
										}
									}
								}
							}
							JOINT R5ProxPhalanx
							{
								OFFSET -0.0675499 -0.001644 -0.039
								CHANNELS 2 Yrotation Zrotation
								JOINT R5MidPhalanx
								{
									OFFSET -0.04 0 0
									CHANNELS 1 Zrotation
									JOINT R5DistPhalanx
									{
										OFFSET -0.021 0 0
										CHANNELS 1 Zrotation
										End Site
										{
											OFFSET -0.022 -0 -0
										}
									}
								}
							}
						}
					}
				}
			}
		}
	}
	JOINT Left_Thigh
	{
		OFFSET 0.1118 -0.1612 -0.0442
		CHANNELS 3 Xrotation Zrotation Yrotation
		JOINT Left_Shin
		{
			OFFSET 0 -0.477856 0
			CHANNELS 1 Xrotation
			JOINT Left_Foot
			{
				OFFSET 0 -0.431952 0
				CHANNELS 2 Xrotation Zrotation
				JOINT Left_Toe
				{
					OFFSET 0 -0.0442 0.119
					CHANNELS 1 Xrotation
					End Site
					{
						OFFSET -0 -0 0.07
					}
				}
			}
		}
	}
	JOINT Right_Thigh
	{
		OFFSET -0.1118 -0.1612 -0.0442
		CHANNELS 3 Xrotation Zrotation Yrotation
		JOINT Right_Shin
		{
			OFFSET 0 -0.477856 0
			CHANNELS 1 Xrotation
			JOINT Right_Foot
			{
				OFFSET 0 -0.431952 0
				CHANNELS 2 Xrotation Zrotation
				JOINT Right_Toe
				{
					OFFSET 0 -0.0442 0.119
					CHANNELS 1 Xrotation
					End Site
					{
						OFFSET -0 -0 0.07
					}
				}
			}
		}
	}
}
MOTION
Frames: 13
Frame Time: 0.009975
-0.0987579 -0.0601779 0.0519629 -5.51962e-014 7.28124e-008 -5.10933e-006 0 0 0 0 0 0 0 0 0 0 0 0 0 0 -0 0 -0 0 0 0 0 -40.5316 -43.5896 103.283 -7.10789 -4.81548 2.69559 -7.40342 -2.98992 -6.72733 5.89092 0.508958 -5.4973 -5.3917 11.1257 1.19015 -12.1062 -9.35422 19.4153 3.33565 -41.2194 -1.46018 0 0 -0 0 -0 0 0 0 0 37.9386 28.008 73.698 26.2405 28.4472 13.118 18.2167 29.0248 19.6359 0 22.4358 32.6146 28.1246 -8.63175 30.7051 32.2053 23.7634 -7.83088 26.7354 35.1526 30.0193 0.805053 -0.821357 -0.0115412 0.0240216 -0.828992 0.821444 0 0.816459 -0.821355 -0.0117047 0 -0.816375 0.821444 0 
-0.0987579 -0.0601779 0.0519629 -5.51962e-014 7.28124e-008 -5.10933e-006 0 0 0 0 0 0 0 0 0 0 0 0 0 0 -0 0 -0 0 0 0 0 -40.5316 -43.5896 103.283 -7.10789 -4.81548 2.69559 -7.40342 -2.98992 -6.72733 5.89092 0.508958 -5.4973 -5.3917 11.1257 1.19015 -12.1062 -9.35422 19.4153 3.33565 -41.2194 -1.46018 0 0 -0 0 -0 0 0 0 0 37.9386 28.008 73.698 26.2405 28.4472 13.118 18.2167 29.0248 19.6359 0 22.4358 32.6146 28.1246 -8.63175 30.7051 32.2053 23.7634 -7.83088 26.7354 35.1526 30.0193 0.805053 -0.821357 -0.0115412 0.0240216 -0.828992 0.821444 0 0.816459 -0.821355 -0.0117047 0 -0.816375 0.821444 0 
-0.101405 -0.0600653 0.0439702 1.34651e-012 2.79155e-008 -5.08403e-006 0 -0 0 0 -0 0 0 -0 0 -0.710302 0.291061 -9.06622e-006 0.315768 -35.3078 -0.140734 -23.3335 -30.8537 -92.8298 -0.652654 1.62752 8.28408 -40.6385 -43.5109 103.135 -7.24735 -4.8914 2.67736 -7.51636 -3.17497 -6.76869 5.86226 0.346656 -5.66981 -5.45475 11.0789 1.02468 -12.2457 -9.39745 19.3495 3.19963 -41.1833 -1.55288 -0.315768 35.3078 -0.140734 23.3335 30.8537 92.8298 -0.652654 -1.62752 -8.28408 40.6385 43.5109 103.135 7.24735 4.8914 -2.67736 7.51636 3.17497 6.76869 -5.86226 -0.346656 5.66981 5.45475 -11.0789 -1.02468 12.2457 9.39745 -19.3495 -3.19963 41.1833 1.55288 0.301676 -0.654642 -0.0034555 0.0239015 -0.325558 0.654656 0 0.313025 -0.654642 -0.00358548 0 -0.313004 0.654656 0 
-0.10135 -0.0600621 0.0432865 1.35328e-012 2.80558e-008 -5.10958e-006 0 -0 0 0 -0 0 0 -0 0 -0.712305 0.290964 -1.60985e-010 0.317304 -35.4852 0.0171901 -23.3408 -29.7089 -93.4851 -0.655177 1.63568 8.32571 -40.5316 -43.5896 103.283 -7.10789 -4.81548 2.69559 -7.40342 -2.98992 -6.72733 5.89092 0.508958 -5.4973 -5.3917 11.1257 1.19015 -12.1062 -9.35422 19.4153 3.33565 -41.2194 -1.46018 -0.317304 35.4852 0.0171893 23.3408 29.7089 93.4851 -0.655177 -1.63568 -8.32571 40.5316 43.5896 103.283 7.10789 4.81548 -2.69559 7.40342 2.98992 6.72733 -5.89092 -0.508958 5.4973 5.3917 -11.1257 -1.19015 12.1062 9.35422 -19.4153 -3.33565 41.2194 1.46018 0.258558 -0.658113 -0.00296983 0.0240216 -0.282562 0.658125 0 0.269963 -0.658113 -0.00310084 0 -0.269945 0.658125 0 
-0.10135 -0.0600621 0.0432738 1.51676e-012 2.40453e-008 -5.1096e-006 0 -0 0 0 -0 0 0 -0 0 -0.712281 0.290947 -6.54872e-015 0.317304 -35.4852 0.0178946 -23.34 -29.7026 -93.4865 -0.655177 1.63568 8.32571 -40.5316 -43.5896 103.283 -7.10789 -4.81548 2.69559 -7.40342 -2.98992 -6.72733 5.89092 0.508958 -5.4973 -5.3917 11.1257 1.19015 -12.1062 -9.35422 19.4153 3.33565 -41.2194 -1.46018 -0.317304 35.4852 0.0178938 23.34 29.7026 93.4865 -0.655177 -1.63568 -8.32571 40.5316 43.5896 103.283 7.10789 4.81548 -2.69559 7.40342 2.98992 6.72733 -5.89092 -0.508958 5.4973 5.3917 -11.1257 -1.19015 12.1062 9.35422 -19.4153 -3.33565 41.2194 1.46018 0.25776 -0.658116 -0.00296069 0.0240216 -0.281765 0.658128 0 0.269166 -0.658115 -0.00309169 2.39069e-006 -0.26915 0.658128 0 
-0.10135 -0.0600621 0.0432737 -2.25644e-013 2.40038e-008 -5.1096e-006 0 -0 0 0 -0 0 0 -0 0 -0.712281 0.290947 -0 0.317304 -35.4852 0.0178946 -23.34 -29.7026 -93.4865 -0.655177 1.63568 8.32571 -40.5316 -43.5896 103.283 -7.10789 -4.81548 2.69559 -7.40342 -2.98992 -6.72733 5.89092 0.508958 -5.4973 -5.3917 11.1257 1.19015 -12.1062 -9.35422 19.4153 3.33565 -41.2194 -1.46018 -0.317304 35.4852 0.0178938 23.34 29.7026 93.4865 -0.655177 -1.63568 -8.32571 40.5316 43.5896 103.283 7.10789 4.81548 -2.69559 7.40342 2.98992 6.72733 -5.89092 -0.508958 5.4973 5.3917 -11.1257 -1.19015 12.1062 9.35422 -19.4153 -3.33565 41.2194 1.46018 0.257752 -0.658116 -0.00296059 0.0240216 -0.281756 0.658128 0 0.269156 -0.658115 -0.00309158 2.41484e-006 -0.269141 0.658128 0 
-0.10135 -0.0600621 0.0432737 1.44096e-013 2.40035e-008 -5.1096e-006 0 -0 0 0 -0 0 0 -0 0 -0.71228 0.290947 -0 0.317304 -35.4852 0.0178946 -23.34 -29.7026 -93.4865 -0.655177 1.63568 8.32571 -40.5316 -43.5896 103.283 -7.10789 -4.81548 2.69559 -7.40342 -2.98992 -6.72733 5.89092 0.508958 -5.4973 -5.3917 11.1257 1.19015 -12.1062 -9.35422 19.4153 3.33565 -41.2194 -1.46018 -0.317304 35.4852 0.0178938 23.34 29.7026 93.4865 -0.655177 -1.63568 -8.32571 40.5316 43.5896 103.283 7.10789 4.81548 -2.69559 7.40342 2.98992 6.72733 -5.89092 -0.508958 5.4973 5.3917 -11.1257 -1.19015 12.1062 9.35422 -19.4153 -3.33565 41.2194 1.46018 0.257752 -0.658116 -0.00296059 0.0240216 -0.281756 0.658128 0 0.269157 -0.658115 -0.00309159 4.24747e-008 -0.269141 0.658128 0 
-0.10135 -0.0600621 0.0432737 1.60966e-012 2.40035e-008 -5.1096e-006 0 -0 0 0 -0 0 0 -0 0 -0.71228 0.290947 -0 0.317304 -35.4852 0.0178946 -23.34 -29.7026 -93.4865 -0.655177 1.63568 8.32571 -40.5316 -43.5896 103.283 -7.10789 -4.81548 2.69559 -7.40342 -2.98992 -6.72733 5.89092 0.508958 -5.4973 -5.3917 11.1257 1.19015 -12.1062 -9.35422 19.4153 3.33565 -41.2194 -1.46018 -0.317304 35.4852 0.0178938 23.34 29.7026 93.4865 -0.655177 -1.63568 -8.32571 40.5316 43.5896 103.283 7.10789 4.81548 -2.69559 7.40342 2.98992 6.72733 -5.89092 -0.508958 5.4973 5.3917 -11.1257 -1.19015 12.1062 9.35422 -19.4153 -3.33565 41.2194 1.46018 0.257752 -0.658116 -0.00296059 0.0240216 -0.281756 0.658128 0 0.269157 -0.658115 -0.00309159 0 -0.269139 0.658128 0 
-0.10135 -0.0600621 0.0432737 2.46255e-012 2.40035e-008 -5.10961e-006 0 -0 0 0 -0 0 0 -0 0 -0.71228 0.290947 -0 0.317304 -35.4852 0.0178946 -23.34 -29.7026 -93.4865 -0.655177 1.63568 8.32571 -40.5316 -43.5896 103.283 -7.10789 -4.81548 2.69559 -7.40342 -2.98992 -6.72733 5.89092 0.508958 -5.4973 -5.3917 11.1257 1.19015 -12.1062 -9.35422 19.4153 3.33565 -41.2194 -1.46018 -0.317304 35.4852 0.0178938 23.34 29.7026 93.4865 -0.655177 -1.63568 -8.32571 40.5316 43.5896 103.283 7.10789 4.81548 -2.69559 7.40342 2.98992 6.72733 -5.89092 -0.508958 5.4973 5.3917 -11.1257 -1.19015 12.1062 9.35422 -19.4153 -3.33565 41.2194 1.46018 0.257752 -0.658116 -0.00296059 0.0240216 -0.281756 0.658128 0 0.269157 -0.658115 -0.00309159 2.36654e-006 -0.269142 0.658128 0 
-0.10135 -0.0600621 0.0432737 -1.03357e-012 2.40035e-008 -5.1096e-006 0 -0 0 0 -0 0 0 -0 0 -0.71228 0.290947 -0 0.317304 -35.4852 0.0178946 -23.34 -29.7026 -93.4865 -0.655177 1.63568 8.32571 -40.5316 -43.5896 103.283 -7.10789 -4.81548 2.69559 -7.40342 -2.98992 -6.72733 5.89092 0.508958 -5.4973 -5.3917 11.1257 1.19015 -12.1062 -9.35422 19.4153 3.33565 -41.2194 -1.46018 -0.317304 35.4852 0.0178938 23.34 29.7026 93.4865 -0.655177 -1.63568 -8.32571 40.5316 43.5896 103.283 7.10789 4.81548 -2.69559 7.40342 2.98992 6.72733 -5.89092 -0.508958 5.4973 5.3917 -11.1257 -1.19015 12.1062 9.35422 -19.4153 -3.33565 41.2194 1.46018 0.257752 -0.658116 -0.00296059 0.0240216 -0.281756 0.658128 0 0.269157 -0.658115 -0.00309159 2.41484e-006 -0.269142 0.658128 0 
-0.10135 -0.0600621 0.0432737 -1.1154e-012 2.40035e-008 -5.1096e-006 0 -0 0 0 -0 0 0 -0 0 -0.71228 0.290947 -0 0.317304 -35.4852 0.0178946 -23.34 -29.7026 -93.4865 -0.655177 1.63568 8.32571 -40.5316 -43.5896 103.283 -7.10789 -4.81548 2.69559 -7.40342 -2.98992 -6.72733 5.89092 0.508958 -5.4973 -5.3917 11.1257 1.19015 -12.1062 -9.35422 19.4153 3.33565 -41.2194 -1.46018 -0.317304 35.4852 0.0178938 23.34 29.7026 93.4865 -0.655177 -1.63568 -8.32571 40.5316 43.5896 103.283 7.10789 4.81548 -2.69559 7.40342 2.98992 6.72733 -5.89092 -0.508958 5.4973 5.3917 -11.1257 -1.19015 12.1062 9.35422 -19.4153 -3.33565 41.2194 1.46018 0.257752 -0.658116 -0.00296059 0.0240216 -0.281756 0.658128 0 0.269156 -0.658115 -0.00309157 2.41484e-006 -0.269142 0.658128 0 
-0.10135 -0.0600621 0.0432737 1.69678e-012 2.40035e-008 -5.10961e-006 0 -0 0 0 -0 0 0 -0 0 -0.71228 0.290947 -0 0.317304 -35.4852 0.0178946 -23.34 -29.7026 -93.4865 -0.655177 1.63568 8.32571 -40.5316 -43.5896 103.283 -7.10789 -4.81548 2.69559 -7.40342 -2.98992 -6.72733 5.89092 0.508958 -5.4973 -5.3917 11.1257 1.19015 -12.1062 -9.35422 19.4153 3.33565 -41.2194 -1.46018 -0.317304 35.4852 0.0178938 23.34 29.7026 93.4865 -0.655177 -1.63568 -8.32571 40.5316 43.5896 103.283 7.10789 4.81548 -2.69559 7.40342 2.98992 6.72733 -5.89092 -0.508958 5.4973 5.3917 -11.1257 -1.19015 12.1062 9.35422 -19.4153 -3.33565 41.2194 1.46018 0.257752 -0.658116 -0.00296059 0.0240216 -0.281756 0.658128 0 0.269156 -0.658115 -0.00309157 9.39151e-008 -0.269141 0.658128 0 
-0.10135 -0.0600621 0.0432737 1.76111e-012 2.40035e-008 -5.10961e-006 0 -0 0 0 -0 0 0 -0 0 -0.71228 0.290947 3.88256e-019 0.317304 -35.4852 0.0178946 -23.34 -29.7026 -93.4865 -0.655177 1.63568 8.32571 -40.5316 -43.5896 103.283 -7.10789 -4.81548 2.69559 -7.40342 -2.98992 -6.72733 5.89092 0.508958 -5.4973 -5.3917 11.1257 1.19015 -12.1062 -9.35422 19.4153 3.33565 -41.2194 -1.46018 -0.317304 35.4852 0.0178938 23.34 29.7026 93.4865 -0.655177 -1.63568 -8.32571 40.5316 43.5896 103.283 7.10789 4.81548 -2.69559 7.40342 2.98992 6.72733 -5.89092 -0.508958 5.4973 5.3917 -11.1257 -1.19015 12.1062 9.35422 -19.4153 -3.33565 41.2194 1.46018 0.257752 -0.658116 -0.00296059 0.0240216 -0.281756 0.658128 0 0.269157 -0.658115 -0.00309159 1.65632e-006 -0.26914 0.658128 0 
